<svg xmlns="http://www.w3.org/2000/svg" viewBox="0 0 64 64" fill="none">
  <path d="M32 8 C20 8 12 18 12 28 C12 36 18 42 24 46 L24 52 L40 52 L40 46 C46 42 52 36 52 28 C52 18 44 8 32 8Z" fill="#854D0E" stroke="#EAB308" stroke-width="3"/>
  <rect x="24" y="52" width="16" height="4" fill="#EAB308"/>
  <rect x="26" y="56" width="12" height="2" fill="#EAB308"/>
  <ellipse cx="32" cy="28" rx="8" ry="10" fill="#FEF08A" opacity="0.8"/>
  <path d="M8 28 L4 28 M56 28 L60 28" stroke="#EAB308" stroke-width="2" stroke-linecap="round"/>
  <path d="M14 14 L10 10 M50 14 L54 10" stroke="#EAB308" stroke-width="2" stroke-linecap="round"/>
  <path d="M32 4 L32 0" stroke="#EAB308" stroke-width="2" stroke-linecap="round"/>
</svg>
