<svg xmlns="http://www.w3.org/2000/svg" viewBox="0 0 64 64" fill="none">
  <polygon points="32,4 36,24 56,24 40,36 46,56 32,44 18,56 24,36 8,24 28,24" fill="#164E63" stroke="#22D3EE" stroke-width="2"/>
  <polygon points="32,12 34,24 44,24 36,32 40,44 32,38 24,44 28,32 20,24 30,24" fill="#22D3EE" opacity="0.6"/>
  <circle cx="32" cy="28" r="4" fill="#FFFFFF"/>
  <path d="M4 32 L0 28 M4 32 L0 36" stroke="#22D3EE" stroke-width="2" stroke-linecap="round"/>
  <path d="M60 32 L64 28 M60 32 L64 36" stroke="#22D3EE" stroke-width="2" stroke-linecap="round"/>
  <circle cx="12" cy="12" r="2" fill="#22D3EE"/>
  <circle cx="52" cy="52" r="2" fill="#22D3EE"/>
  <circle cx="8" cy="48" r="1.5" fill="#22D3EE"/>
</svg>
